<?xml version="1.0" encoding="utf-8"?>
<!-- Generator: Adobe Illustrator 23.0.6, SVG Export Plug-In . SVG Version: 6.00 Build 0)  -->
<svg version="1.1" id="Layer_1" xmlns="http://www.w3.org/2000/svg" xmlns:xlink="http://www.w3.org/1999/xlink" x="0px" y="0px"
	 viewBox="0 0 1486 728" style="enable-background:new 0 0 1486 728;" xml:space="preserve">
<style type="text/css">
	.st0{fill:#D1262B;}
	.st1{fill:#A9AAAC;}
	.st2{fill:#231F20;}
</style>
<g>
	<path class="st0" d="M127.6,358.7l1,17.6h1.4l6.5-17.1l109.6-258.5h73.4L152.9,452.1H81.5L27.9,100.7H101L127.6,358.7z"/>
	<path class="st0" d="M389.4,457.2c-34.3,0-60.3-12.1-78.2-36.4c-17.9-24.3-23.7-54.9-17.6-91.7l1.5-9.7c6.4-40.4,21.4-72.7,45-97
		c23.6-24.3,52.3-36.4,86.3-36.2c32,0,55.7,10.7,70.9,32.2c15.3,21.5,20.1,50.1,14.5,85.8l-6,38.4H361.4c-1.3,18.4,1.7,33.1,8.9,44
		c7.2,10.9,18.9,16.3,35,16.3c13.5,0,25.5-1.6,36-4.8c10.5-3.2,21.8-8.1,34-14.7l11.8,43.5c-11.1,8.6-25.2,15.8-42.4,21.6
		C427.7,454.3,409.2,457.2,389.4,457.2z M417.7,240.5c-10.9,0-20.5,5-28.6,15.1c-8.1,10.1-14.2,23.1-18.2,39.2l0.5,1.2h73.8l1-6.3
		c2.4-15.6,1.4-27.7-3-36.3C438.7,244.8,430.2,240.5,417.7,240.5z"/>
	<path class="st0" d="M540.5,318.9c8.8-43.9,22.9-77,42.2-99.3c19.3-22.3,44.3-33.4,75.1-33.4c12.7,0,24.1,2.9,34.3,8.7
		c10.1,5.8,18.4,14,24.9,24.5l10.4-28.4h60.6l-50.7,253.4c-7.4,36.7-23.5,64.7-48.3,84.1c-24.8,19.4-56.1,29.1-93.9,29.1
		c-11.6,0-24.2-1.9-37.8-5.5c-13.6-3.7-25.6-8.6-36.1-14.7l23.4-52.6c8.8,5.1,18.2,9,28.2,11.7c10,2.7,21,4,33.1,4
		c15.6,0,28.9-5.1,39.8-15.2c10.9-10.1,18.2-23.7,21.7-40.9l1.9-10.4c-8.4,7.5-17.3,13.2-26.9,17.2c-9.6,4-19.6,6-30,6
		c-28,0-49-12.8-63.1-38.5c-14.1-25.7-17.3-57.2-9.8-94.7L540.5,318.9z M609,324c-5,24.8-5.4,44.1-1.2,58
		c4.2,13.9,14.1,20.9,29.7,20.9c8.5,0,16.4-2.3,23.8-6.8c7.3-4.5,13.9-11,19.7-19.4l23.2-117c-2.9-6.3-7.3-11.1-13.3-14.3
		c-6-3.2-13.4-4.8-22.4-4.8c-14.3,0-26.5,7.1-36.4,21.2c-10,14.2-17.3,33.2-22,57.2L609,324z"/>
	<path class="st0" d="M927.6,452.1c-1-4.8-1.7-9.8-2.2-15c-0.5-5.1-0.7-10.4-0.7-15.7c-9.5,10.6-20.2,19.2-32.1,25.8
		c-11.9,6.6-24.7,9.9-38.4,9.9c-22.2,0-39.3-7.2-51.4-21.7c-12.1-14.5-15.7-33.5-10.9-56.9c5.5-27.2,18.4-47.4,38.9-60.7
		c20.4-13.3,48.7-19.9,84.7-19.9h31.4l4.1-20.7c2.6-13.3,1.8-23.3-2.4-29.8c-4.2-6.5-11.9-9.8-23.2-9.8c-9.3,0-17.4,2.8-24.1,8.4
		c-6.8,5.6-11,13.3-12.8,22.9l-66.9-0.2l-0.5-1.5c3.9-23.6,16.7-43.1,38.6-58.3c21.9-15.2,48.7-22.8,80.4-22.8
		c27.5,0,49.3,8,65.3,24.1c16,16.1,21.2,38.5,15.6,67.3l-21.7,107.9c-2.7,13.2-4.2,24.9-4.5,35.2c-0.2,10.3,0.5,20.7,2.3,31.4H927.6
		z M883.6,405c8.4,0,16.8-2.2,25.2-6.6c8.4-4.4,15.5-9.9,21.1-16.5l8.9-44.1h-31.4c-11.9,0-22,3.8-30.4,11.3
		c-8.4,7.6-13.5,16.6-15.4,27c-1.9,9.3-1,16.5,2.9,21.5C868.4,402.6,874.8,405,883.6,405z"/>
	<path class="st0" d="M1149.1,221.8c10-11.6,21.3-20.5,34-26.6c12.7-6,26.8-9.1,42.2-9.1c13.8,0,25.6,3.6,35.2,10.6
		c9.7,7.1,16.1,17.8,19.3,31.9c10.1-13.6,21.9-24,35.4-31.5c13.4-7.4,28.3-11.1,44.5-11.1c22.4,0,39,9,50,27
		c10.9,18,12.9,45,5.8,80.8l-31.6,158.1h-69.7l31.6-158.7c4.2-21.1,4.4-35.2,0.6-42.3c-3.8-7.1-11.5-10.6-23-10.6
		c-8,0-15.7,2.3-22.9,6.8c-7.2,4.5-13.8,10.7-19.5,18.6c-0.3,2.3-0.6,4.6-1,6.9c-0.3,2.3-0.7,4.8-1.2,7.4l-34.3,172h-69.3
		l31.6-158.7c4.2-20.6,4.3-34.6,0.5-42c-3.8-7.3-11.7-11-23.4-11c-7.6,0-14.8,1.9-21.7,5.6c-6.9,3.7-13.2,8.8-18.8,15.2l-38.1,190.8
		h-69.3L1088,191h64.4L1149.1,221.8z"/>
</g>
<g>
	<rect x="784.3" y="511.3" class="st1" width="628.2" height="47.4"/>
</g>
<g>
	<rect x="17.3" y="510.7" class="st1" width="491.3" height="47.4"/>
</g>
<g>
	<rect x="1237.9" y="48.9" class="st0" width="72.8" height="76.5"/>
</g>
<g>
	<rect x="1382.8" y="22.6" class="st0" width="62.4" height="56.7"/>
</g>
<g>
	<rect x="1352.2" y="120.8" class="st0" width="61.5" height="41.1"/>
</g>
<g>
	<path class="st2" d="M47.8,599.8l27.3,69.7h0.4l27.3-69.7h14.8v85.7H106v-33.9l1.2-34.9l-0.3-0.1l-27.8,68.8h-7.7l-27.7-68.7
		l-0.3,0.1l1.1,34.7v33.9H33v-85.7H47.8z"/>
	<path class="st2" d="M175.9,685.5c-0.4-1.9-0.7-3.6-0.9-5.1c-0.2-1.5-0.3-3-0.4-4.4c-2.2,3.1-5,5.6-8.4,7.7
		c-3.5,2.1-7.2,3.1-11.2,3.1c-6.6,0-11.7-1.7-15.2-5.1c-3.5-3.4-5.2-8.1-5.2-14c0-6.1,2.5-10.9,7.4-14.3c4.9-3.4,11.6-5.1,20.1-5.1
		h12.6v-6.3c0-3.7-1.1-6.7-3.4-8.9c-2.3-2.2-5.5-3.3-9.7-3.3c-3.7,0-6.8,0.9-9.1,2.9c-2.3,1.9-3.5,4.2-3.5,6.9h-11.1l-0.1-0.4
		c-0.2-4.6,2-8.9,6.6-12.7c4.6-3.8,10.6-5.8,17.9-5.8c7.2,0,13,1.8,17.4,5.5c4.4,3.7,6.6,9,6.6,15.9v30.7c0,2.3,0.1,4.5,0.4,6.6
		c0.2,2.1,0.7,4.2,1.3,6.2H175.9z M156.6,676.9c4.2,0,8-1.1,11.4-3.2c3.4-2.2,5.6-4.6,6.6-7.4V656h-13c-4.7,0-8.4,1.2-11.2,3.5
		c-2.8,2.4-4.2,5.1-4.2,8.3c0,2.8,0.9,5,2.6,6.7C150.5,676.1,153.2,676.9,156.6,676.9z"/>
	<path class="st2" d="M222.2,656h-7.5v29.5h-11.6v-91.9h11.6v53.2h7.4l17.4-25.1h13.9l-21.8,28.9l24.9,34.8h-13.7L222.2,656z"/>
	<path class="st2" d="M277.4,605.5h-11.6v-11.8h11.6V605.5z M277.4,685.5h-11.6v-63.7h11.6V685.5z"/>
	<path class="st2" d="M305.6,621.8l0.8,9.5c2.1-3.4,4.8-6,8-7.9c3.2-1.9,6.8-2.8,10.9-2.8c6.9,0,12.2,2,16,6
		c3.8,4,5.7,10.2,5.7,18.6v40.2h-11.6v-40c0-5.6-1.1-9.6-3.3-11.9c-2.2-2.4-5.6-3.5-10.2-3.5c-3.3,0-6.3,0.8-8.9,2.4
		c-2.6,1.6-4.6,3.8-6.1,6.6v46.5h-11.6v-63.7H305.6z"/>
	<path class="st2" d="M361.2,654.8c0-10.3,2.2-18.5,6.7-24.8c4.5-6.3,10.7-9.4,18.6-9.4c4,0,7.6,0.8,10.7,2.4c3.1,1.6,5.6,4,7.7,7
		l1.4-8.3h9.2v64.1c0,8.2-2.4,14.4-7.1,18.8c-4.8,4.4-11.6,6.6-20.6,6.6c-3.1,0-6.4-0.4-9.9-1.3c-3.6-0.9-6.7-2-9.4-3.5l2.9-9
		c2.1,1.2,4.6,2.1,7.5,2.9c2.9,0.7,5.8,1.1,8.7,1.1c5.7,0,9.8-1.3,12.3-3.8c2.6-2.6,3.9-6.5,3.9-11.8v-7.2c-2.1,2.7-4.6,4.7-7.5,6
		c-2.9,1.4-6.2,2-10,2c-7.8,0-14-2.8-18.4-8.5c-4.5-5.6-6.7-13-6.7-22.2V654.8z M372.8,656c0,6.4,1.4,11.5,4.1,15.4
		c2.7,3.9,6.8,5.8,12.4,5.8c3.5,0,6.4-0.8,8.8-2.4c2.4-1.6,4.3-3.8,5.8-6.7v-29.3c-1.5-2.7-3.4-4.9-5.8-6.4
		c-2.4-1.6-5.3-2.4-8.7-2.4c-5.5,0-9.7,2.3-12.4,7c-2.8,4.6-4.1,10.6-4.1,17.8V656z"/>
	<path class="st2" d="M515.1,647.6H476v37.9h-11.6v-85.7h56.7v9.1H476v29.6h39.1V647.6z"/>
	<path class="st2" d="M569.7,685.5c-0.4-1.9-0.7-3.6-0.9-5.1c-0.2-1.5-0.3-3-0.4-4.4c-2.2,3.1-5,5.6-8.4,7.7
		c-3.5,2.1-7.2,3.1-11.2,3.1c-6.6,0-11.7-1.7-15.2-5.1c-3.5-3.4-5.2-8.1-5.2-14c0-6.1,2.5-10.9,7.4-14.3c4.9-3.4,11.6-5.1,20.1-5.1
		h12.6v-6.3c0-3.7-1.1-6.7-3.4-8.9c-2.3-2.2-5.5-3.3-9.7-3.3c-3.7,0-6.8,0.9-9.1,2.9c-2.3,1.9-3.5,4.2-3.5,6.9h-11.1l-0.1-0.4
		c-0.2-4.6,2-8.9,6.6-12.7c4.6-3.8,10.6-5.8,17.9-5.8c7.2,0,13,1.8,17.4,5.5c4.4,3.7,6.6,9,6.6,15.9v30.7c0,2.3,0.1,4.5,0.4,6.6
		c0.2,2.1,0.7,4.2,1.3,6.2H569.7z M550.4,676.9c4.2,0,8-1.1,11.4-3.2c3.4-2.2,5.6-4.6,6.6-7.4V656h-13c-4.7,0-8.4,1.2-11.2,3.5
		c-2.8,2.4-4.2,5.1-4.2,8.3c0,2.8,0.9,5,2.6,6.7C544.3,676.1,547,676.9,550.4,676.9z"/>
	<path class="st2" d="M622.7,677.6c3.8,0,7.2-1.2,10.2-3.6c2.9-2.4,4.4-5.3,4.4-8.7h10.4l0.1,0.3c0.2,5.5-2.3,10.4-7.3,14.7
		c-5.1,4.3-11,6.4-17.8,6.4c-9.3,0-16.4-3-21.3-9.1c-4.9-6-7.4-13.6-7.4-22.8v-2.5c0-9.1,2.5-16.6,7.4-22.7c4.9-6.1,12-9.1,21.2-9.1
		c7.5,0,13.5,2.2,18.3,6.6c4.7,4.4,7,9.8,6.9,16.2l-0.1,0.3h-10.5c0-3.9-1.4-7.2-4.1-9.9c-2.8-2.7-6.2-4.1-10.4-4.1
		c-6.1,0-10.4,2.2-13.1,6.5c-2.6,4.4-3.9,9.7-3.9,16.1v2.5c0,6.5,1.3,11.9,3.9,16.3C612.2,675.4,616.6,677.6,622.7,677.6z"/>
	<path class="st2" d="M676.1,606.4v15.4h12.1v8.6h-12.1v38.7c0,3,0.6,5.1,1.9,6.3c1.2,1.2,2.9,1.8,4.9,1.8c0.7,0,1.4-0.1,2.2-0.2
		c0.8-0.2,1.5-0.4,2.1-0.6l1.5,7.9c-0.9,0.7-2.1,1.3-3.8,1.7c-1.7,0.5-3.3,0.7-5,0.7c-4.7,0-8.5-1.4-11.2-4.3
		c-2.8-2.8-4.2-7.3-4.2-13.4v-38.7h-10.1v-8.6h10.1v-15.4H676.1z"/>
	<path class="st2" d="M699.8,653c0-9.4,2.5-17.2,7.7-23.3c5.1-6.1,12-9.2,20.8-9.2c8.8,0,15.8,3,20.9,9.1c5.1,6.1,7.7,13.8,7.7,23.3
		v1.3c0,9.5-2.6,17.3-7.7,23.3c-5.1,6-12,9.1-20.8,9.1c-8.8,0-15.8-3-20.9-9.1c-5.1-6.1-7.7-13.8-7.7-23.3V653z M711.4,654.3
		c0,6.7,1.4,12.3,4.3,16.7c2.8,4.4,7.1,6.6,12.7,6.6c5.5,0,9.7-2.2,12.6-6.6c2.9-4.4,4.3-10,4.3-16.7V653c0-6.7-1.4-12.2-4.3-16.6
		c-2.9-4.4-7.1-6.6-12.7-6.6c-5.5,0-9.7,2.2-12.6,6.6c-2.8,4.4-4.3,10-4.3,16.6V654.3z"/>
	<path class="st2" d="M801.2,632l-5.9-0.4c-3.1,0-5.6,0.7-7.7,2.2c-2.1,1.5-3.7,3.5-4.9,6.1v45.5H771v-63.7h10.4l1.1,9.3
		c1.8-3.3,4-5.9,6.7-7.7c2.6-1.9,5.7-2.8,9.2-2.8c0.9,0,1.7,0.1,2.5,0.2c0.8,0.1,1.4,0.3,1.9,0.4L801.2,632z"/>
	<path class="st2" d="M824.9,605.5h-11.6v-11.8h11.6V605.5z M824.9,685.5h-11.6v-63.7h11.6V685.5z"/>
	<path class="st2" d="M869.2,686.7c-8.9,0-15.9-3-21.2-8.9c-5.2-5.9-7.9-13.6-7.9-23v-2.6c0-9.1,2.7-16.6,8.1-22.6
		c5.4-6,11.8-9,19.2-9c8.6,0,15.1,2.6,19.5,7.8c4.4,5.2,6.6,12.1,6.6,20.7v7.2h-41.4l-0.2,0.3c0.1,6.1,1.7,11.1,4.6,15.1
		c3,3.9,7.2,5.9,12.5,5.9c3.9,0,7.4-0.6,10.3-1.7c3-1.1,5.5-2.7,7.7-4.6l4.5,7.5c-2.3,2.3-5.3,4.1-9,5.6
		C879,686,874.5,686.7,869.2,686.7z M867.4,629.7c-3.9,0-7.2,1.6-10,4.9c-2.7,3.3-4.4,7.4-5.1,12.3l0.1,0.3h29.4v-1.5
		c0-4.5-1.2-8.3-3.7-11.4C875.8,631.3,872.2,629.7,867.4,629.7z"/>
	<path class="st2" d="M943.6,668.5c0-2.6-1-4.6-2.9-6.3c-1.9-1.7-5.6-3.1-11.1-4.3c-7.7-1.7-13.5-4-17.5-6.9
		c-3.9-2.9-5.8-6.8-5.8-11.8c0-5.2,2.2-9.6,6.6-13.2c4.4-3.6,10.1-5.5,17.2-5.5c7.4,0,13.3,1.9,17.7,5.7c4.4,3.8,6.5,8.4,6.3,13.9
		l-0.1,0.3h-11.1c0-2.8-1.2-5.3-3.5-7.5c-2.3-2.2-5.4-3.3-9.3-3.3c-4.1,0-7.2,0.9-9.2,2.7c-2,1.8-3,4-3,6.5c0,2.5,0.9,4.5,2.6,5.9
		c1.8,1.5,5.4,2.8,10.8,3.9c8,1.7,14,4.1,18,7c3.9,3,5.9,6.9,5.9,11.9c0,5.7-2.3,10.2-6.8,13.7c-4.6,3.5-10.6,5.2-17.9,5.2
		c-8.1,0-14.5-2.1-19.2-6.2c-4.7-4.1-6.9-8.9-6.6-14.4l0.1-0.3h11.1c0.2,4.1,1.7,7.1,4.6,9c2.9,1.9,6.2,2.9,10.1,2.9
		c4.1,0,7.4-0.8,9.7-2.5C942.4,673.4,943.6,671.2,943.6,668.5z"/>
	<path class="st2" d="M1048.4,663.9c0-3.9-1.5-7.2-4.4-9.8c-3-2.6-8.2-4.8-15.7-6.6c-9.1-2.2-16.1-5.4-21.2-9.6
		c-5.1-4.2-7.6-9.5-7.6-15.9c0-6.7,2.7-12.3,8.2-16.8c5.5-4.5,12.6-6.7,21.3-6.7c9.4,0,16.9,2.6,22.4,7.7c5.5,5.1,8.2,11.1,8,17.9
		l-0.1,0.4h-11.1c0-5-1.7-9.1-5-12.2c-3.3-3.1-8.1-4.6-14.3-4.6c-5.8,0-10.2,1.3-13.3,3.9c-3.1,2.6-4.6,6-4.6,10.2
		c0,3.7,1.6,6.8,5,9.3c3.3,2.5,8.8,4.7,16.3,6.6c9,2.2,15.9,5.5,20.6,9.9c4.7,4.3,7.1,9.8,7.1,16.2c0,6.9-2.8,12.5-8.5,16.7
		c-5.6,4.2-13,6.3-22.1,6.3c-8.6,0-16.1-2.3-22.7-7c-6.6-4.6-9.8-10.8-9.6-18.6l0.1-0.4h11.1c0,5.5,2,9.7,6.1,12.5
		c4,2.9,9.1,4.3,15,4.3c5.8,0,10.5-1.2,13.9-3.7C1046.7,671.5,1048.4,668.1,1048.4,663.9z"/>
	<path class="st2" d="M1085.1,621.8l0.8,8.4c2.1-3,4.7-5.4,7.9-7c3.2-1.7,6.9-2.5,11.2-2.5c4.2,0,7.9,1,10.9,2.9
		c3,2,5.3,4.9,6.8,8.8c2-3.6,4.6-6.5,8-8.6c3.3-2.1,7.1-3.2,11.5-3.2c6.5,0,11.6,2.2,15.4,6.7c3.8,4.5,5.7,11.2,5.7,20.1v38.1h-11.6
		v-38.2c0-6.3-1.1-10.7-3.3-13.3c-2.1-2.6-5.4-3.9-9.6-3.9c-4,0-7.2,1.4-9.6,4.1c-2.5,2.8-3.9,6.2-4.3,10.4v0.5v40.5h-11.7v-38.2
		c0-6-1.1-10.3-3.3-13.1c-2.2-2.8-5.4-4.1-9.6-4.1c-3.5,0-6.4,0.7-8.7,2.2c-2.3,1.5-4,3.5-5.2,6.1v47.2h-11.6v-63.7H1085.1z"/>
	<path class="st2" d="M1219.3,685.5c-0.4-1.9-0.7-3.6-0.9-5.1c-0.2-1.5-0.3-3-0.4-4.4c-2.2,3.1-5,5.6-8.5,7.7
		c-3.5,2.1-7.2,3.1-11.2,3.1c-6.6,0-11.7-1.7-15.2-5.1c-3.5-3.4-5.2-8.1-5.2-14c0-6.1,2.5-10.9,7.4-14.3c4.9-3.4,11.6-5.1,20-5.1
		h12.6v-6.3c0-3.7-1.1-6.7-3.4-8.9c-2.3-2.2-5.5-3.3-9.7-3.3c-3.7,0-6.8,0.9-9.1,2.9c-2.3,1.9-3.5,4.2-3.5,6.9h-11.1l-0.1-0.4
		c-0.2-4.6,2-8.9,6.6-12.7c4.6-3.8,10.6-5.8,17.9-5.8c7.2,0,13,1.8,17.4,5.5c4.4,3.7,6.6,9,6.6,15.9v30.7c0,2.3,0.1,4.5,0.4,6.6
		c0.2,2.1,0.7,4.2,1.3,6.2H1219.3z M1200.1,676.9c4.2,0,8-1.1,11.4-3.2c3.4-2.2,5.6-4.6,6.6-7.4V656h-13c-4.7,0-8.4,1.2-11.2,3.5
		c-2.8,2.4-4.2,5.1-4.2,8.3c0,2.8,0.9,5,2.7,6.7C1194,676.1,1196.6,676.9,1200.1,676.9z"/>
	<path class="st2" d="M1276.6,632l-6-0.4c-3.1,0-5.6,0.7-7.7,2.2c-2.1,1.5-3.7,3.5-4.9,6.1v45.5h-11.6v-63.7h10.4l1.1,9.3
		c1.8-3.3,4-5.9,6.7-7.7c2.6-1.9,5.7-2.8,9.2-2.8c0.9,0,1.7,0.1,2.5,0.2c0.8,0.1,1.4,0.3,1.9,0.4L1276.6,632z"/>
	<path class="st2" d="M1304.1,606.4v15.4h12.1v8.6h-12.1v38.7c0,3,0.6,5.1,1.9,6.3c1.2,1.2,2.9,1.8,4.9,1.8c0.7,0,1.4-0.1,2.2-0.2
		c0.8-0.2,1.5-0.4,2.1-0.6l1.5,7.9c-0.9,0.7-2.1,1.3-3.8,1.7c-1.7,0.5-3.4,0.7-5,0.7c-4.7,0-8.5-1.4-11.2-4.3
		c-2.8-2.8-4.2-7.3-4.2-13.4v-38.7h-10.1v-8.6h10.1v-15.4H1304.1z"/>
	<path class="st2" d="M1356.9,686.7c-8.9,0-15.9-3-21.2-8.9c-5.2-5.9-7.9-13.6-7.9-23v-2.6c0-9.1,2.7-16.6,8.1-22.6
		c5.4-6,11.8-9,19.2-9c8.6,0,15.1,2.6,19.5,7.8c4.4,5.2,6.6,12.1,6.6,20.7v7.2h-41.4l-0.2,0.3c0.1,6.1,1.7,11.1,4.6,15.1
		c3,3.9,7.2,5.9,12.5,5.9c3.9,0,7.4-0.6,10.3-1.7c3-1.1,5.5-2.7,7.7-4.6l4.5,7.5c-2.3,2.3-5.3,4.1-9,5.6
		C1366.7,686,1362.2,686.7,1356.9,686.7z M1355.1,629.7c-3.9,0-7.2,1.6-10,4.9c-2.7,3.3-4.4,7.4-5.1,12.3l0.1,0.3h29.4v-1.5
		c0-4.5-1.2-8.3-3.7-11.4C1363.5,631.3,1359.9,629.7,1355.1,629.7z"/>
	<path class="st2" d="M1424.4,632l-5.9-0.4c-3.1,0-5.6,0.7-7.7,2.2c-2.1,1.5-3.7,3.5-4.9,6.1v45.5h-11.6v-63.7h10.4l1.1,9.3
		c1.8-3.3,4-5.9,6.7-7.7c2.7-1.9,5.7-2.8,9.2-2.8c0.9,0,1.7,0.1,2.5,0.2c0.8,0.1,1.4,0.3,1.9,0.4L1424.4,632z"/>
</g>
</svg>
